# xmcd
#
# Track frame offsets:
#	150
#	12925
#	25047
#	33420
#	42675
#	53232
#	69107
#	80250
#	92405
#	105625
#	115642
#	130695
#	143977
#	158825
#	176395
#	190850
#	201077
#	221742
#	233855
#	246447
#	261012
#	272177
#
# Disc length: 3759 seconds
#
# Revision: 1
# Processed by: cddbd v1.5.2PL0 Copyright (c) Steve Scherf et al.
# Submitted via: audiograbber 1.83.01
#
DISCID=2b0ead16
DTITLE=SHIRLEY BASSEY - THIS IS MY LIFE [CD2)
DYEAR=1900
DGENRE=
TTITLE0=GOLDFINGER
TTITLE1=GONE
TTITLE2=BIG SPENDER
TTITLE3=DON'T TAKE THE LOVERS FROM THE WORLD
TTITLE4=THE LIQUIDATOR
TTITLE5=TO GIVE
TTITLE6=WHO COULD LOVE ME?
TTITLE7=I (WHO HAVE NOTHING)
TTITLE8=WHAT NOW MY LOVE
TTITLE9=WHO CAN I TURN TO?
TTITLE10=IT'S YOURSELF
TTITLE11=MY SPECIAL DREAM
TTITLE12=WHAT KIND OF FOOL AM I?
TTITLE13=AVE MARIA
TTITLE14=FAR AWAY
TTITLE15=TONIGHT
TTITLE16=IF YOU GO AWAY
TTITLE17=THE IMPOSSIBLE DREAM
TTITLE18=NO REGRETS
TTITLE19=THIS IS MY LIFE
TTITLE20=DOES ANYBODY MISS ME?
TTITLE21=SHIRLEY
EXTD=
EXTT0=
EXTT1=
EXTT2=
EXTT3=
EXTT4=
EXTT5=
EXTT6=
EXTT7=
EXTT8=
EXTT9=
EXTT10=
EXTT11=
EXTT12=
EXTT13=
EXTT14=
EXTT15=
EXTT16=
EXTT17=
EXTT18=
EXTT19=
EXTT20=
EXTT21=
PLAYORDER=
